<svg width="1400" height="1000" viewBox="0 0 1400 1000" fill="none" xmlns="http://www.w3.org/2000/svg">
  <rect width="1400" height="1000" rx="72" fill="#F7F3EB"/>
  <rect x="110" y="92" width="1180" height="816" rx="34" fill="#FBFAF7" stroke="#DCE5E8" stroke-width="12"/>
  <path d="M244 250C394 143 504 110 662 110C787 110 901 164 1014 164C1127 164 1194 143 1280 110" stroke="#DCE5E8" stroke-width="10" stroke-linecap="round"/>
  <path d="M224 340C329 282 403 252 495 252C612 252 713 326 831 326C935 326 1017 266 1124 266C1175 266 1224 279 1278 305" stroke="#E3ECE7" stroke-width="18" stroke-linecap="round"/>
  <path d="M204 438C321 359 426 332 547 332C664 332 764 391 876 391C1018 391 1111 321 1238 321" stroke="#C8D7DE" stroke-width="18" stroke-linecap="round"/>
  <path d="M198 774C320 648 408 596 520 596C645 596 724 673 834 673C948 673 1035 585 1167 511" stroke="#488C6D" stroke-width="16" stroke-linecap="round"/>
  <path d="M228 792H1153" stroke="#1A3F61" stroke-width="12" stroke-linecap="round"/>
  <path d="M362 792V878" stroke="#1A3F61" stroke-width="10" stroke-linecap="round"/>
  <path d="M522 792V884" stroke="#1A3F61" stroke-width="10" stroke-linecap="round"/>
  <path d="M682 792V894" stroke="#1A3F61" stroke-width="10" stroke-linecap="round"/>
  <path d="M842 792V882" stroke="#1A3F61" stroke-width="10" stroke-linecap="round"/>
  <path d="M1002 792V868" stroke="#1A3F61" stroke-width="10" stroke-linecap="round"/>
  <circle cx="530" cy="597" r="20" fill="#1A3F61"/>
  <circle cx="834" cy="673" r="20" fill="#488C6D"/>
  <circle cx="1167" cy="511" r="20" fill="#F4E3B9"/>
  <path d="M352 536L502 424L623 499L760 408L903 463L1042 354" stroke="#1A3F61" stroke-width="12" stroke-linecap="round" stroke-linejoin="round"/>
  <circle cx="352" cy="536" r="14" fill="#1A3F61"/>
  <circle cx="502" cy="424" r="14" fill="#1A3F61"/>
  <circle cx="623" cy="499" r="14" fill="#1A3F61"/>
  <circle cx="760" cy="408" r="14" fill="#1A3F61"/>
  <circle cx="903" cy="463" r="14" fill="#1A3F61"/>
  <circle cx="1042" cy="354" r="14" fill="#1A3F61"/>
</svg>
